<?xml version="1.0" encoding="UTF-8" standalone="yes"?>
<svg xmlns="http://www.w3.org/2000/svg" xmlns:xlink="http://www.w3.org/1999/xlink" width="48px" height="48px" viewBox="0 0 48 48" version="1.1" fill="#000000">
  <g id="surface43396">
    <path style=" stroke:none;fill-rule:nonzero;fill:#000000;fill-opacity:1;" d="M 6 38 L 42 38 L 42 42 L 6 42 Z M 24 5 L 6 13 L 6 18 L 42 18 L 42 13 Z M 13.597656 14 L 24 9.378906 L 34.402344 14 Z M 13.597656 14 "/>
    <path style=" stroke:none;fill-rule:nonzero;fill:#000000;fill-opacity:1;" d="M 10 16 L 14 16 L 14 34 L 10 34 Z M 18 16 L 22 16 L 22 34 L 18 34 Z M 26 16 L 30 16 L 30 34 L 26 34 Z M 34 16 L 38 16 L 38 34 L 34 34 Z M 34 16 "/>
  </g>
</svg>
