<svg id="Layer_1" data-name="Layer 1" xmlns="http://www.w3.org/2000/svg" viewBox="0 0 990.93 160"><defs><style>.cls-1{fill:#515c6f;}.cls-2{fill:#fd901c;}</style></defs><title>OCM Logo Mobile</title><path class="cls-1" d="M147.94,119.28a29.91,29.91,0,0,1-12.9-13q-4.42-8.56-4.43-20.62V71.37q0-11.9,4.43-20.37a29.85,29.85,0,0,1,12.9-12.91q8.49-4.43,20.46-4.42t20.45,4.42A29.82,29.82,0,0,1,201.76,51q4.43,8.47,4.43,20.37V85.88q0,12-4.43,20.46a30,30,0,0,1-12.91,12.94q-8.47,4.47-20.45,4.47T147.94,119.28ZM179.2,97.39q3.87-4.08,3.87-11.51V71.37q0-7.34-3.87-11.39t-10.89-4q-6.92,0-10.75,4t-3.84,11.39V85.88q0,7.43,3.8,11.51t10.79,4.1Q175.32,101.49,179.2,97.39Z"/><path class="cls-1" d="M215.16,34.93h23.12v87.56H215.16Zm50.62,34.5q0-6.41-3.67-10t-10.42-3.55q-6.42,0-9.91,3.59t-3.5,10.08L236.5,50.2q4-8.27,9.49-12.4t13.88-4.13q13.83,0,21.43,9.32t7.59,26.36v53.14H265.78Z"/><path class="cls-1" d="M328.48,123.75l-9-4.59a31.39,31.39,0,0,1-13.7-13.42q-4.73-8.8-4.73-21.21V74.66q0-13,4.51-22.18a31.51,31.51,0,0,1,13.16-14q8.65-4.8,20.88-4.8,11.47,0,19.65,5.73t12.45,16.66Q376,67,376,82.42v5.74H316.08V72.55h38.8l-.25-2q-.93-7.59-4.77-11.73a13.34,13.34,0,0,0-10.25-4.13q-8.36,0-12.95,5t-4.59,14.09V84.87q0,8.94,5,13.83t14,4.89a27,27,0,0,0,9.19-1.64,28.16,28.16,0,0,0,8.27-4.68l15.1,13.41a50.41,50.41,0,0,1-15.35,9.66,46.05,46.05,0,0,1-17.21,3.41Z"/><path class="cls-2" d="M418.7,123.75,409.8,119a31.62,31.62,0,0,1-13.53-13.88q-4.65-9.1-4.64-21.93V73.82q0-12.75,4.64-21.73a31.52,31.52,0,0,1,13.53-13.7q8.91-4.72,21.39-4.72a53.84,53.84,0,0,1,13.54,1.64,41.59,41.59,0,0,1,11.43,4.77,30.35,30.35,0,0,1,8.43,7.59l-14.93,14.5a23.2,23.2,0,0,0-7.51-4.59,24.92,24.92,0,0,0-9-1.65q-8.78,0-13.58,4.68t-4.81,13.21v9.36q0,8.77,4.81,13.54t13.58,4.77a23.74,23.74,0,0,0,9.11-1.78,21.12,21.12,0,0,0,7.42-5.06L464.59,110a31.41,31.41,0,0,1-8.52,7.47,41.31,41.31,0,0,1-11.39,4.68,54.63,54.63,0,0,1-13.49,1.6Z"/><path class="cls-2" d="M470.86-.16H494V23H470.86Zm0,35.09H494v87.56H470.86Z"/><path class="cls-2" d="M508.74,34.93h42.85V54.67H508.74Zm14.38,82.12q-5.36-5.86-5.36-17.34V9.45h23.11V94a8.18,8.18,0,0,0,1.27,4.93,4.31,4.31,0,0,0,3.71,1.73h5.74v22.27H540Q528.47,122.91,523.12,117.05Z"/><path class="cls-2" d="M562.55,34.93h21.76L613.75,111l-14.59,18.64Zm80.9,0L604.47,143a27.88,27.88,0,0,1-5.44,9.49,18.23,18.23,0,0,1-8,5A39,39,0,0,1,579.25,159h-5.14V136.58h5.14a11,11,0,0,0,6.2-1.65,10,10,0,0,0,3.76-5.36l32.47-94.64Z"/><path class="cls-1" d="M661.28,34.93h23.11v87.56H661.28Zm51,37q0-7.68-3.79-11.85c-2.53-2.78-6.11-4.18-10.71-4.18q-6.42,0-9.92,3.59t-3.5,10.08l-1.77-19.4a31.79,31.79,0,0,1,9.7-12.32A22.67,22.67,0,0,1,706,33.67a26.25,26.25,0,0,1,26,17.54q3.45,8.61,3.46,20.67v50.61H712.31Zm51,0q0-7.68-3.67-11.85t-10.42-4.18q-6.66,0-10.25,4t-3.58,11.35L731.12,51a32.57,32.57,0,0,1,10.76-12.86,25.53,25.53,0,0,1,14.72-4.51,28.44,28.44,0,0,1,16.15,4.47A27.74,27.74,0,0,1,783,51.21q3.49,8.61,3.5,20.67v50.61H763.35Z"/><path class="cls-1" d="M803.9,117.05q-7-6.7-7-20.37,0-13,7.8-19.49t23.41-6.5h21.93l1.18,17.64h-23c-3.48,0-6.1.69-7.84,2.06s-2.62,3.48-2.62,6.29a7,7,0,0,0,3.3,6.36q3.28,2.07,9.95,2.07,9.27,0,13.79-2.11c3-1.4,4.51-3.6,4.51-6.58l1.77,12.74a11.89,11.89,0,0,1-4.34,8,25.14,25.14,0,0,1-9.61,4.94A44.25,44.25,0,0,1,825,123.75Q810.85,123.75,803.9,117.05ZM849.32,67c0-4-1.35-7.17-4.05-9.36s-6.52-3.29-11.47-3.29a30.76,30.76,0,0,0-9.7,1.6,28.68,28.68,0,0,0-8.52,4.47L801.24,46.32A34.42,34.42,0,0,1,815.08,37a52.18,52.18,0,0,1,19.06-3.33q11.48,0,19.57,3.83a27.54,27.54,0,0,1,12.36,11.14q4.26,7.29,4.26,17.58v56.27h-21Z"/><path class="cls-1" d="M881,34.93H905.8v87.56H881Zm45.13,21.85a17.35,17.35,0,0,0-5.65-.85q-7,0-10.84,4.52T905.8,73L904,50.2A31.27,31.27,0,0,1,913.43,38a20.61,20.61,0,0,1,12.69-4.34A27.17,27.17,0,0,1,936,35.39a21.84,21.84,0,0,1,7.72,5.11l-13.5,18.81A10.64,10.64,0,0,0,926.12,56.78Z"/><path class="cls-1" d="M948,34.93h42.85V54.67H948Zm14.38,82.12Q957,111.19,957,99.71V9.45h23.12V94a8.25,8.25,0,0,0,1.26,4.93,4.33,4.33,0,0,0,3.72,1.73h5.73v22.27H979.18Q967.71,122.91,962.35,117.05Z"/><path class="cls-2" d="M71.73,39.57A51.67,51.67,0,0,1,72.67,45a40.87,40.87,0,0,1-6.45,7.2c-1,.87-2,1.71-3.1,2.49l-.07,0,0,0h0l-.08.06A59.93,59.93,0,0,0,49.69,68.33,59.73,59.73,0,0,0,31.89,62h-.24a39.53,39.53,0,0,1-3.88-.87,42,42,0,0,1-9.08-3.71,48.69,48.69,0,0,1-1.5-5.2A50.78,50.78,0,0,1,34.24,1.6,51,51,0,0,1,66.78,26.54,51.66,51.66,0,0,1,71.73,39.57Z"/><path class="cls-2" d="M100.78,63.53A50.81,50.81,0,0,1,77,118.84a49.35,49.35,0,0,1-5.33,2.71,51.66,51.66,0,0,1-9,3,50.88,50.88,0,0,1-9.48,1.27h0a51,51,0,0,1-4.56-31.33A52.23,52.23,0,0,1,50,88.74a51.16,51.16,0,0,1,2.73-7.17,51.75,51.75,0,0,1,2.59-4.81A50.61,50.61,0,0,1,68.47,62.3l.11-.08q2-1.44,3.81-3A51,51,0,0,0,86.55,38.38a50.37,50.37,0,0,1,7.27,8.77,51.43,51.43,0,0,1,7,16.38Z"/><path class="cls-2" d="M44.91,76.32c-.23.43-.43.86-.64,1.3a60.55,60.55,0,0,0-4.81,15.23,59.71,59.71,0,0,0,.67,23.85,60.61,60.61,0,0,0,2.59,8.41A50.9,50.9,0,0,1,.37,74.61a49.49,49.49,0,0,1,.39-6A50.76,50.76,0,0,1,3.45,57.57,51.07,51.07,0,0,0,25.28,70c1.58.43,3.16.79,4.77,1.07l.13,0A50.65,50.65,0,0,1,44.91,76.32Z"/></svg>