<svg id="Layer_1" data-name="Layer 1" xmlns="http://www.w3.org/2000/svg" viewBox="0 0 577.93 288.99"><defs><style>.cls-1{fill:#515c6f;}.cls-2{fill:#fd901c;}</style></defs><title>OCM Logo Desktop</title><path class="cls-1" d="M276,110.42a27.17,27.17,0,0,1-11.72-11.83q-4-7.78-4-18.74V47.15q0-10.8,4-18.5A27,27,0,0,1,276,16.93q7.71-4,18.58-4t18.58,4A27,27,0,0,1,324.9,28.65q4,7.7,4,18.5V80.08q0,10.89-4,18.58a27.19,27.19,0,0,1-11.73,11.76q-7.69,4.06-18.58,4.06T276,110.42ZM304.4,90.54q3.53-3.71,3.53-10.46V47.15q0-6.66-3.53-10.34t-9.88-3.68q-6.28,0-9.77,3.68t-3.49,10.34V80.08q0,6.75,3.45,10.46t9.81,3.72Q300.87,94.26,304.4,90.54Z" transform="translate(0 -4.81)"/><path class="cls-1" d="M339.61,14.05h21V93.58h-21Zm46,31.34q0-5.82-3.33-9t-9.47-3.22q-5.82,0-9,3.26t-3.18,9.15L359,27.92q3.6-7.5,8.62-11.26a20.5,20.5,0,0,1,12.61-3.76q12.55,0,19.46,8.47t6.89,23.94V93.58h-21Z" transform="translate(0 -4.81)"/><path class="cls-1" d="M444.93,114.48l-8.16-4.17a28.51,28.51,0,0,1-12.45-12.18q-4.29-8-4.29-19.27V50.14q0-11.79,4.1-20.15a28.55,28.55,0,0,1,11.95-12.72q7.86-4.36,19-4.37a30.33,30.33,0,0,1,17.85,5.21q7.43,5.22,11.3,15.14t3.87,23.94V70.87h-54.4v-17h35.25l-.24-7.48q-.84-6.9-4.33-10.65a12.05,12.05,0,0,0-9.3-3.76q-7.59,0-11.76,4.52t-4.18,12.8V79.16q0,8.13,4.56,12.57t12.75,4.44a24.34,24.34,0,0,0,8.36-1.49,25.81,25.81,0,0,0,7.51-4.25L486,102.61a45.91,45.91,0,0,1-13.94,8.77,41.68,41.68,0,0,1-15.64,3.1Z" transform="translate(0 -4.81)"/><path class="cls-1" d="M260.27,213.12h21v79.54h-21Zm46.35,33.64q0-7-3.45-10.77t-9.73-3.79q-5.82,0-9,3.26t-3.18,9.16L279.65,227a28.8,28.8,0,0,1,8.81-11.18A20.58,20.58,0,0,1,300.88,212a23.83,23.83,0,0,1,23.59,15.93,50.19,50.19,0,0,1,3.15,18.77v46h-21Zm46.36,0q0-7-3.34-10.77t-9.46-3.79q-6,0-9.31,3.64t-3.25,10.31l-3.91-18.39a29.58,29.58,0,0,1,9.77-11.68,23.15,23.15,0,0,1,13.37-4.1A25.81,25.81,0,0,1,361.52,216a25.19,25.19,0,0,1,9.27,11.87A49.76,49.76,0,0,1,374,246.68v46H353Z" transform="translate(0 -4.81)"/><path class="cls-1" d="M397.15,287.72q-6.31-6.11-6.32-18.51,0-11.79,7.09-17.7t21.26-5.9H439.1l1.07,16H419.26q-4.75,0-7.13,1.87a6.85,6.85,0,0,0-2.38,5.71,6.36,6.36,0,0,0,3,5.79c2,1.25,5,1.87,9,1.87q8.43,0,12.53-1.91t4.1-6L440,280.55a10.85,10.85,0,0,1-3.95,7.28,22.83,22.83,0,0,1-8.73,4.48,40.11,40.11,0,0,1-11.07,1.5Q403.46,293.81,397.15,287.72Zm41.26-45.48q0-5.52-3.68-8.5t-10.42-3a27.71,27.71,0,0,0-8.81,1.45,26.17,26.17,0,0,0-7.74,4.06l-13-12.79A31.25,31.25,0,0,1,407.3,215a47.75,47.75,0,0,1,17.32-3q10.41,0,17.77,3.48a25.05,25.05,0,0,1,11.23,10.12,31.12,31.12,0,0,1,3.87,16v51.11H438.41Z" transform="translate(0 -4.81)"/><path class="cls-1" d="M478.17,213.12H500.7v79.54H478.17Zm41,19.85a15.73,15.73,0,0,0-5.13-.77q-6.36,0-9.84,4.1t-3.49,11.38L499.09,227a28.41,28.41,0,0,1,8.54-11.07A18.78,18.78,0,0,1,519.16,212a24.51,24.51,0,0,1,9,1.57,19.6,19.6,0,0,1,7,4.63l-12.26,17.09A9.71,9.71,0,0,0,519.16,233Z" transform="translate(0 -4.81)"/><path class="cls-1" d="M539,213.12h38.92v17.93H539Zm13.06,74.6q-4.86-5.34-4.86-15.75V190h21v76.77a7.45,7.45,0,0,0,1.15,4.48,3.91,3.91,0,0,0,3.37,1.57h5.21V293H567.36Q556.93,293,552.07,287.72Z" transform="translate(0 -4.81)"/><path class="cls-1" d="M284.86,203l-8.08-4.33a28.8,28.8,0,0,1-12.3-12.6q-4.22-8.28-4.21-19.93v-8.5q0-11.57,4.21-19.73a28.67,28.67,0,0,1,12.3-12.45q8.09-4.29,19.42-4.29a49.35,49.35,0,0,1,12.3,1.49A37.52,37.52,0,0,1,318.88,127a27.52,27.52,0,0,1,7.66,6.9L313,147.08a21,21,0,0,0-6.82-4.18,22.66,22.66,0,0,0-8.2-1.49q-8,0-12.33,4.25t-4.37,12v8.5q0,8,4.37,12.3T298,182.78a21.4,21.4,0,0,0,8.28-1.61,19.13,19.13,0,0,0,6.74-4.6l13.56,14a28.52,28.52,0,0,1-7.74,6.78,37.52,37.52,0,0,1-10.34,4.25A49.81,49.81,0,0,1,296.2,203Z" transform="translate(0 -4.81)"/><path class="cls-1" d="M339.57,90.45h21v21h-21Zm0,31.88h21v79.53h-21Z" transform="translate(0 -4.81)"/><path class="cls-1" d="M376.79,122.33h38.92v17.93H376.79Zm13.06,74.59Q385,191.6,385,181.17v-82h21V176a7.52,7.52,0,0,0,1.15,4.48A3.91,3.91,0,0,0,410.5,182h5.21v20.23H405.14Q394.72,202.24,389.85,196.92Z" transform="translate(0 -4.81)"/><path class="cls-1" d="M479.38,122.34l-15.94,46.5L454.12,196,450,207.89a30.58,30.58,0,0,1,10.87,11,29.77,29.77,0,0,1,1.94,3.92c.31-.73.62-1.5.91-2.29l35.41-98.13Zm-15.94,46.5-18-46.5H425.68L454.12,196l4.8,12.42,13.26-16.93Z" transform="translate(0 -4.81)"/><path class="cls-2" d="M164.93,92.58a116.4,116.4,0,0,1,2.19,12.52,95,95,0,0,1-14.91,16.65c-2.29,2-4.69,4-7.17,5.74l-.16.1-.07.06,0,0-.19.14A138.46,138.46,0,0,0,114,159a138.49,138.49,0,0,0-41.14-14.65l-.14,0h-.14l-.09,0-.18,0c-3-.52-6-1.21-9-2a97.46,97.46,0,0,1-21-8.58,112.15,112.15,0,0,1-3.45-12A117.41,117.41,0,0,1,78.29,4.81a117.23,117.23,0,0,1,86.64,87.77Z" transform="translate(0 -4.81)"/><path class="cls-2" d="M232.08,148a117.44,117.44,0,0,1-67.31,134.1A119.25,119.25,0,0,1,144,288.92a117.71,117.71,0,0,1-21.91,2.94h0a118.1,118.1,0,0,1-10.53-72.43A117.76,117.76,0,0,1,121,189.65a114,114,0,0,1,6-11.11,117.59,117.59,0,0,1,30.47-33.44l.25-.18q4.58-3.33,8.8-7a118.11,118.11,0,0,0,32.74-48A117,117,0,0,1,232.08,148Z" transform="translate(0 -4.81)"/><path class="cls-2" d="M102.94,177.51c-.51,1-1,2-1.46,3a138.43,138.43,0,0,0-9.58,90.33,141.88,141.88,0,0,0,6,19.44A117.67,117.67,0,0,1,0,173.56,119.49,119.49,0,0,1,.9,159.75a116.76,116.76,0,0,1,6.22-25.57A118,118,0,0,0,57.59,163c3.63,1,7.29,1.83,11,2.47l.3.07A117.14,117.14,0,0,1,102.94,177.51Z" transform="translate(0 -4.81)"/></svg>