<svg id="Layer_1" data-name="Layer 1" xmlns="http://www.w3.org/2000/svg" viewBox="0 0 240.93 295"><defs><style>.cls-1{fill:#fd901c;}</style></defs><title>OCM Logo Icon</title><path class="cls-1" d="M168.07,90.58a116.4,116.4,0,0,1,2.19,12.52,95,95,0,0,1-14.91,16.65c-2.29,2-4.69,4-7.17,5.74l-.16.1-.07.06,0,0-.19.14A138.46,138.46,0,0,0,117.14,157,138.49,138.49,0,0,0,76,142.38l-.14,0h-.14l-.09,0-.19,0c-3-.52-6-1.21-9-2a97.25,97.25,0,0,1-21-8.58,114.55,114.55,0,0,1-3.46-12A117.47,117.47,0,0,1,81.43,2.81a117.82,117.82,0,0,1,75.21,57.66A118.28,118.28,0,0,1,168.07,90.58Z"/><path class="cls-1" d="M235.22,146a117.44,117.44,0,0,1-55,127.83,115.61,115.61,0,0,1-12.31,6.27,118.52,118.52,0,0,1-42.67,9.8h0a118.1,118.1,0,0,1-10.53-72.43,118.1,118.1,0,0,1,15.38-40.89,117.74,117.74,0,0,1,30.47-33.44l.25-.18q4.59-3.33,8.81-7a118.11,118.11,0,0,0,32.74-48A116.36,116.36,0,0,1,226,120.11,117.72,117.72,0,0,1,235.22,146Z"/><path class="cls-1" d="M106.08,175.51c-.52,1-1,2-1.47,3a139.59,139.59,0,0,0-11.13,35.21A138.36,138.36,0,0,0,95,268.85a140.5,140.5,0,0,0,6,19.44A117.66,117.66,0,0,1,3.14,171.56,121.76,121.76,0,0,1,4,157.75a116.76,116.76,0,0,1,6.22-25.57A118,118,0,0,0,60.73,161c3.63,1,7.29,1.83,11,2.47l.3.07A117.14,117.14,0,0,1,106.08,175.51Z"/></svg>